<svg version="1.1" id="Layer_1" xmlns="http://www.w3.org/2000/svg" xmlns:xlink="http://www.w3.org/1999/xlink" x="0px" y="0px" width="100%" viewBox="0 0 64 64" enable-background="new 0 0 64 64" xml:space="preserve">

<path fill="#C3C4CB" opacity="1.000000" stroke="none" d="
M65.000000,45.000000 
	C65.000000,49.025185 65.000000,53.050365 64.749001,57.601685 
	C64.329742,58.166611 64.161484,58.205406 63.703751,58.056824 
	C62.963985,57.829319 62.513695,57.789188 61.980621,57.613808 
	C61.897846,57.478561 61.581261,57.459755 61.345139,57.283607 
	C60.727039,57.101685 60.345058,57.095909 60.016064,57.021862 
	C60.069050,56.953587 60.090572,56.782085 59.994751,56.500198 
	C59.596291,55.968636 59.293655,55.718960 59.003006,55.243977 
	C59.023338,54.717896 59.024967,54.417080 59.172966,53.865524 
	C59.642525,52.790432 59.958988,51.966049 60.275455,51.141663 
	C59.523300,51.097332 58.771145,51.053005 57.691536,51.058685 
	C56.214100,51.751850 55.064121,52.395012 53.590961,53.069351 
	C52.841145,53.178177 52.414509,53.255825 51.673691,53.152458 
	C50.534561,53.269932 49.709610,53.568424 48.579803,53.974991 
	C47.869198,54.763306 47.463455,55.443542 46.666183,56.262596 
	C45.451256,56.348957 44.627853,56.296501 43.819382,55.801445 
	C43.858826,53.596367 43.883339,51.833885 43.946480,49.804947 
	C43.989872,49.359062 43.994640,49.179634 44.004372,48.675278 
	C44.015526,47.917099 44.021717,47.483856 44.392857,47.012794 
	C45.479065,45.919334 46.200325,44.863686 47.221664,43.629383 
	C48.668903,43.316715 49.816071,43.182705 51.172707,43.335030 
	C52.297237,43.794945 53.212288,43.968529 54.310242,44.285152 
	C55.020847,44.002834 55.548553,43.577477 56.352242,43.017200 
	C56.823235,42.819695 57.018234,42.757111 57.379803,42.741776 
	C57.546368,42.789032 57.887726,42.730919 58.254871,42.826950 
	C58.874836,42.913364 59.127651,42.903751 59.593437,43.086128 
	C61.537609,43.852081 63.268803,44.426041 65.000000,45.000000 
M49.123886,45.741825 
	C49.087063,46.004814 49.050243,46.267807 49.013424,46.530796 
	C49.159569,46.528748 49.430412,46.542561 49.432999,46.522247 
	C49.466949,46.255272 49.463066,45.983486 49.123886,45.741825 
z" data-index="1" style="opacity: 1;"></path>
<path fill="#30353C" opacity="1.000000" stroke="none" d="
M32.000000,65.000000 
	C28.969406,65.000000 25.938814,65.000000 22.455706,64.568596 
	C21.565601,57.916843 21.338541,51.647640 18.161694,46.144829 
	C20.302622,45.726830 22.192823,50.767040 24.310732,46.046234 
	C25.443695,46.016811 26.199301,46.006710 27.244049,45.996666 
	C27.725571,45.991062 27.917953,45.985397 28.298346,46.112133 
	C28.718632,46.454266 28.890890,46.705196 28.775877,47.238091 
	C29.028896,50.343517 28.423319,53.963379 33.241737,54.089794 
	C33.682972,54.449986 33.873611,54.708012 34.005692,55.378799 
	C34.005981,56.492317 34.009171,57.234196 33.764809,58.236359 
	C33.327049,59.668114 33.136841,60.839577 32.733189,62.253662 
	C32.346497,63.330853 32.173248,64.165428 32.000000,65.000000 
z" data-index="2" style="opacity: 1;"></path>
<path fill="#3F61C5" opacity="1.000000" stroke="none" d="
M65.000000,44.625000 
	C63.268803,44.426041 61.537609,43.852081 59.556324,42.697220 
	C59.176437,41.085087 59.046638,40.053860 58.958527,38.745850 
	C58.894535,38.035686 58.788860,37.602314 58.683186,37.168938 
	C58.437695,37.769726 58.192204,38.370510 57.731300,39.078609 
	C57.234131,39.356766 57.015224,39.587292 56.592033,39.853203 
	C55.878265,39.551598 55.431625,39.274284 54.955956,38.668255 
	C54.540970,37.821304 54.155010,37.303066 53.854683,36.273071 
	C54.042114,35.077015 54.143921,34.392715 54.257236,33.515007 
	C57.261230,28.479639 52.588230,30.653082 50.984612,29.640308 
	C50.537415,28.910585 50.231823,28.428410 50.276405,27.912704 
	C52.391068,27.883524 54.155560,27.887877 56.170708,28.141899 
	C59.280910,28.594379 62.140457,28.797190 65.000000,29.000000 
	C65.000000,31.700014 65.000000,34.400028 64.730118,37.591660 
	C64.168114,38.291145 63.875992,38.499008 63.429291,38.939117 
	C63.408684,39.862823 63.542652,40.554287 63.847000,41.447433 
	C64.344925,41.766075 64.672462,41.883038 65.000000,42.000000 
	C65.000000,42.750000 65.000000,43.500000 65.000000,44.625000 
z" data-index="3" style="opacity: 1;"></path>
<path fill="#30353D" opacity="1.000000" stroke="none" d="
M19.000000,65.000000 
	C17.285625,65.000000 15.571250,65.000000 13.588593,64.714973 
	C15.974010,61.426781 13.670002,59.258217 11.902243,56.685791 
	C10.488510,54.603325 9.237344,52.807072 8.236627,50.815582 
	C10.200969,50.722725 11.914862,50.825108 14.029758,50.951443 
	C12.188662,48.046215 10.589161,45.522224 8.993200,42.662018 
	C9.006145,41.877602 9.015548,41.429401 9.407795,40.986763 
	C11.528705,40.658958 13.266772,40.325584 15.002459,39.995953 
	C15.000076,39.999695 15.006386,39.990128 15.076455,40.295105 
	C15.777680,41.057377 16.408836,41.514671 17.020290,41.986282 
	C17.000587,42.000607 17.033316,41.965576 17.014450,42.309589 
	C16.686047,43.738182 16.376509,44.822758 15.902449,46.180260 
	C16.825285,52.635452 17.912643,58.817726 19.000000,65.000000 
z" data-index="4"></path>
<path fill="#0A1621" opacity="1.000000" stroke="none" d="
M7.986178,51.010822 
	C9.237344,52.807072 10.488510,54.603325 11.626827,56.914597 
	C9.984272,57.790089 8.454567,58.150558 7.277709,58.427883 
	C7.537245,60.789398 7.768623,62.894699 8.000000,65.000000 
	C5.712545,65.000000 3.425090,65.000000 1.000000,65.000000 
	C1.000000,59.981342 1.000000,54.961868 1.250726,49.337990 
	C2.673338,48.486263 3.845224,48.238941 5.150334,48.285011 
	C6.184433,49.389214 7.085306,50.200016 7.986178,51.010822 
z" data-index="5" style="opacity: 1;"></path>
<path fill="#4E4744" opacity="1.000000" stroke="none" d="
M34.012356,57.976074 
	C34.009171,57.234196 34.005981,56.492317 34.220444,55.193413 
	C33.960052,53.749802 33.482021,52.863213 32.996895,51.990978 
	C32.989803,52.005333 33.021503,52.009865 33.082836,51.675629 
	C33.171913,50.889576 33.199657,50.437756 33.561501,49.844772 
	C34.346615,48.615234 34.797630,47.526855 35.510078,46.468948 
	C36.116272,46.547718 36.461040,46.596024 37.169834,46.740379 
	C38.034046,46.880360 38.534229,46.924294 39.200031,47.299477 
	C39.496677,48.101322 39.627701,48.571915 39.503586,49.348999 
	C39.825314,51.928837 40.402184,54.202190 41.036701,56.852364 
	C41.151985,58.750732 41.209618,60.272278 41.196991,62.289597 
	C41.180885,63.453075 41.235031,64.120781 41.256680,64.893745 
	C41.224178,64.999001 41.000000,65.000000 41.000000,65.000000 
	C41.000000,65.000000 40.500000,65.000000 40.169117,64.684486 
	C38.576324,63.572742 37.314411,62.776516 35.880051,61.769432 
	C35.227406,61.318851 34.747204,61.079124 34.240074,60.481945 
	C34.146214,59.408356 34.079285,58.692215 34.012356,57.976074 
z" data-index="6"></path>
<path fill="#1F272F" opacity="1.000000" stroke="none" d="
M5.017110,47.991615 
	C3.845224,48.238941 2.673338,48.486263 1.250726,48.866791 
	C1.000000,45.307091 1.000000,41.614182 1.000000,37.460636 
	C2.429794,36.048847 3.859589,35.097698 5.756912,34.367622 
	C6.786918,35.082367 7.349397,35.576038 7.988526,36.422089 
	C8.385102,38.176712 8.705027,39.578957 9.024952,40.981197 
	C9.015548,41.429401 9.006145,41.877602 8.716923,42.833439 
	C7.297106,44.891254 6.157108,46.441433 5.017110,47.991615 
z" data-index="7" style="opacity: 1;"></path>
<path fill="#C3C5CB" opacity="1.000000" stroke="none" d="
M41.333332,65.000000 
	C41.000000,65.000000 41.224178,64.999001 41.743412,64.915779 
	C42.225647,63.911640 42.188648,62.990726 42.346611,61.865997 
	C42.788887,61.156086 43.036205,60.649982 43.482586,60.149864 
	C43.977894,60.079971 44.141838,59.889961 44.612423,59.493080 
	C49.057026,59.551975 53.062687,59.703606 57.044956,60.247032 
	C57.006653,61.422844 56.991737,62.206852 56.836124,63.085567 
	C56.695427,63.180271 56.445866,63.410000 56.101543,63.232658 
	C54.506184,63.036968 53.255150,63.018623 51.588512,62.927006 
	C48.782005,63.245583 46.391102,63.637428 43.648716,64.019646 
	C43.198158,64.340012 43.099079,64.670006 43.000000,65.000000 
	C42.555553,65.000000 42.111111,65.000000 41.333332,65.000000 
z" data-index="8"></path>
<path fill="#0E1620" opacity="1.000000" stroke="none" d="
M19.375000,65.000000 
	C17.912643,58.817726 16.825285,52.635452 16.194887,46.227318 
	C17.043583,46.047832 17.435318,46.094212 17.827055,46.140591 
	C21.338541,51.647640 21.565601,57.916843 22.001595,64.568596 
	C21.250000,65.000000 20.500000,65.000000 19.375000,65.000000 
z" data-index="9"></path>
<path fill="#3F5BB0" opacity="1.000000" stroke="none" d="
M65.000000,28.571537 
	C62.140457,28.797190 59.280910,28.594379 56.349003,27.861561 
	C58.516788,25.542669 60.756939,23.753784 62.997089,21.964897 
	C63.485779,22.249369 63.974468,22.533840 64.731583,22.909157 
	C65.000000,24.714357 65.000000,26.428717 65.000000,28.571537 
z" data-index="10"></path>
<path fill="#18212A" opacity="1.000000" stroke="none" d="
M8.416666,65.000000 
	C7.768623,62.894699 7.537245,60.789398 7.277709,58.427883 
	C8.454567,58.150558 9.984272,57.790089 11.789394,57.200813 
	C13.670002,59.258217 15.974010,61.426781 13.160156,64.714973 
	C11.611111,65.000000 10.222222,65.000000 8.416666,65.000000 
z" data-index="11"></path>
<path fill="#111B25" opacity="1.000000" stroke="none" d="
M44.000195,64.029274 
	C46.391102,63.637428 48.782005,63.245583 51.585697,63.260284 
	C51.998985,64.111221 51.999493,64.555611 52.000000,65.000000 
	C49.629444,65.000000 47.258884,65.000000 44.439934,64.757317 
	C43.991539,64.514633 44.000195,64.029274 44.000195,64.029274 
z" data-index="12"></path>
<path fill="#252C34" opacity="1.000000" stroke="none" d="
M34.267006,60.839394 
	C34.747204,61.079124 35.227406,61.318851 35.866737,62.147072 
	C36.017250,63.490372 36.008625,64.245186 36.000000,65.000000 
	C34.933331,65.000000 33.866661,65.000000 32.399994,65.000000 
	C32.173248,64.165428 32.346497,63.330853 32.981411,62.093590 
	C33.717720,61.407066 33.992363,61.123230 34.267006,60.839394 
z" data-index="13"></path>
<path fill="#C0C1C7" opacity="1.000000" stroke="none" d="
M65.000000,61.000000 
	C65.000000,62.255436 65.000000,63.510876 65.000000,65.000000 
	C63.668446,65.000000 62.332516,65.000000 60.512657,64.792412 
	C60.028732,64.584824 60.048450,64.169128 60.080452,63.916885 
	C60.116684,63.496269 60.120918,63.327888 60.090370,63.146355 
	C60.055584,63.133202 60.128681,63.119831 60.446480,63.104553 
	C61.476627,62.706806 62.188976,62.324337 63.031830,61.816677 
	C63.376923,61.570454 63.553482,61.408062 64.025444,61.194424 
	C64.572578,61.123016 64.786293,61.061508 65.000000,61.000000 
z" data-index="14" style="opacity: 1;"></path>
<path fill="#343133" opacity="1.000000" stroke="none" d="
M52.400028,65.000000 
	C51.999493,64.555611 51.998985,64.111221 52.001297,63.333557 
	C53.255150,63.018623 54.506184,63.036968 56.092178,63.469345 
	C56.461288,64.039085 56.570995,64.234566 56.514221,64.342415 
	C56.386684,64.584702 56.176525,64.783501 56.000000,65.000000 
	C54.933353,65.000000 53.866703,65.000000 52.400028,65.000000 
z" data-index="15"></path>
<path fill="#403838" opacity="1.000000" stroke="none" d="
M36.399994,65.000000 
	C36.008625,64.245186 36.017250,63.490372 36.039188,62.357922 
	C37.314411,62.776516 38.576324,63.572742 39.919117,64.684486 
	C38.933331,65.000000 37.866661,65.000000 36.399994,65.000000 
z" data-index="16"></path>
<path fill="#B7BBBA" opacity="1.000000" stroke="none" d="
M56.399994,65.000000 
	C56.176525,64.783501 56.386684,64.584702 56.514221,64.342415 
	C56.570995,64.234566 56.461288,64.039085 56.436501,63.646690 
	C56.445866,63.410000 56.695427,63.180271 57.165218,63.086983 
	C58.072708,63.006351 58.510403,63.019005 58.963181,63.024475 
	C58.978260,63.017288 59.003052,62.997433 59.136257,63.225365 
	C59.529125,63.691910 59.788788,63.930519 60.048450,64.169128 
	C60.048450,64.169128 60.028732,64.584824 60.014366,64.792412 
	C58.933331,65.000000 57.866661,65.000000 56.399994,65.000000 
z" data-index="17"></path>
<path fill="#11151E" opacity="1.000000" stroke="none" d="
M65.000000,60.625000 
	C64.786293,61.061508 64.572578,61.123016 63.872219,60.961754 
	C62.923512,60.429478 62.461456,60.119976 61.996292,59.619812 
	C61.993179,59.429146 61.987621,59.047810 62.261375,59.003880 
	C63.021160,58.721367 63.507191,58.482784 63.993221,58.244202 
	C64.161484,58.205406 64.329742,58.166611 64.749001,58.063911 
	C65.000000,58.750000 65.000000,59.500000 65.000000,60.625000 
z" data-index="18"></path>
<path fill="#D6CDBD" opacity="1.000000" stroke="none" d="
M65.000000,41.599854 
	C64.672462,41.883038 64.344925,41.766075 63.918114,41.023479 
	C63.740520,39.834190 63.662197,39.270535 63.583870,38.706879 
	C63.875992,38.499008 64.168114,38.291145 64.730118,38.041641 
	C65.000000,39.066570 65.000000,40.133137 65.000000,41.599854 
z" data-index="19"></path>
<path fill="#10141D" opacity="1.000000" stroke="none" d="
M43.648716,64.019646 
	C44.000195,64.029274 43.991539,64.514633 43.995770,64.757317 
	C44.000000,65.000000 43.500000,65.000000 43.250000,65.000000 
	C43.099079,64.670006 43.198158,64.340012 43.648716,64.019646 
z" data-index="20"></path>
<path fill="#5D93C9" opacity="1.000000" stroke="none" d="
M62.959377,21.612709 
	C60.756939,23.753784 58.516788,25.542669 56.098343,27.611893 
	C54.155560,27.887877 52.391068,27.883524 50.157867,27.914719 
	C49.689159,27.950264 49.450615,27.945217 49.246933,27.737036 
	C48.699921,27.369297 48.356583,27.209742 47.752007,27.244915 
	C47.255836,28.267336 47.020912,29.095028 46.602703,29.910198 
	C46.419418,29.897673 46.053616,29.932177 45.994919,29.834074 
	C45.936222,29.735971 45.616428,29.754768 45.616428,29.754768 
	C45.616428,29.754768 45.943748,30.044188 45.960907,30.302925 
	C45.995045,30.733696 46.012020,30.905731 46.010406,31.052628 
	C45.991814,31.027491 46.050522,31.005957 45.840843,31.103329 
	C45.631165,31.200701 45.208626,31.388466 44.891121,31.292747 
	C44.215866,31.423923 43.858112,31.650818 43.492416,31.840137 
	C43.484474,31.802565 43.408066,31.794769 43.244602,31.538486 
	C42.742390,31.060295 42.403641,30.838387 42.011200,30.288368 
	C39.948868,28.308411 37.940235,26.656563 35.969196,24.740208 
	C36.037487,24.300247 36.068188,24.124800 36.357483,23.757776 
	C38.500801,21.403404 40.385521,19.240612 42.536236,17.034115 
	C43.221382,16.679012 43.640537,16.367613 44.059689,16.056213 
	C47.389294,16.039879 50.727829,15.863878 54.046146,16.049417 
	C57.817802,16.260305 61.234383,17.363575 62.959377,21.612709 
z" data-index="21" style="opacity: 1;"></path>
<path fill="#2E2B2D" opacity="1.000000" stroke="none" d="
M15.006993,4.997492 
	C15.158102,4.708949 15.362350,4.464876 16.012623,4.020702 
	C16.642105,3.592156 16.839682,3.373000 16.998238,3.118666 
	C20.833418,3.518712 24.668600,3.918759 28.724079,4.875535 
	C28.624929,5.955618 28.305483,6.478972 27.530701,7.001647 
	C25.611122,6.999691 24.133711,7.125028 22.684998,6.974383 
	C17.470835,6.432188 15.258843,9.116001 14.597229,13.969169 
	C13.512968,13.999264 12.790871,14.020535 12.117021,13.684196 
	C13.112511,10.550223 14.059752,7.773858 15.006993,4.997492 
z" data-index="22" style="visibility: visible;"></path>
<path fill="#4B3F3C" opacity="1.000000" stroke="none" d="
M36.098885,23.949354 
	C36.068188,24.124800 36.037487,24.300247 35.724113,24.839520 
	C35.002544,25.497135 34.563656,25.790926 33.762226,26.060942 
	C32.915630,26.025585 32.431576,26.014006 31.754988,26.006866 
	C31.562450,26.011311 31.177277,26.012421 31.177109,25.625835 
	C31.158998,22.683653 31.141056,20.128056 31.171488,17.415243 
	C31.346264,17.066610 31.515369,16.926722 32.002232,16.711685 
	C32.516056,16.051666 32.754826,15.518327 33.060791,14.687487 
	C33.724434,13.915071 34.320885,13.440155 34.917332,12.965238 
	C35.422329,13.876966 35.927322,14.788696 36.713810,15.848959 
	C36.995304,15.997493 36.970112,16.005259 36.976135,16.415207 
	C36.687733,19.199886 36.393311,21.574621 36.098885,23.949354 
z" data-index="23" style="opacity: 1;"></path>
<path fill="#3E3633" opacity="1.000000" stroke="none" d="
M14.711609,5.157141 
	C14.059752,7.773858 13.112511,10.550223 12.099680,14.102696 
	C12.011162,17.929764 11.988234,20.980724 11.965305,24.031685 
	C11.181980,23.094559 9.667061,22.101063 9.734219,21.229467 
	C10.165832,15.627818 7.689552,9.070432 14.711609,5.157141 
z" data-index="24" style="visibility: visible; opacity: 1;"></path>
<path fill="#4E4E51" opacity="1.000000" stroke="none" d="
M7.911875,36.069710 
	C7.349397,35.576038 6.786918,35.082367 6.082164,34.344700 
	C7.097569,33.398544 8.255252,32.696381 10.113958,32.020744 
	C12.543121,32.699310 14.271260,33.351357 16.039940,34.319489 
	C16.388426,35.425053 16.696375,36.214535 16.981518,37.337830 
	C16.939756,38.117348 16.920803,38.563049 16.663879,39.128204 
	C15.952736,39.495144 15.479561,39.742638 15.006386,39.990128 
	C15.006386,39.990128 15.000076,39.999695 14.866711,39.746742 
	C12.459522,38.352428 10.185699,37.211071 7.911875,36.069710 
z" data-index="25" style="opacity: 1;"></path>
<path fill="#111922" opacity="1.000000" stroke="none" d="
M15.999399,34.003403 
	C14.271260,33.351357 12.543121,32.699310 10.472717,31.997850 
	C11.027051,30.172382 11.923652,28.396328 13.347367,26.313662 
	C14.599351,26.004326 15.324219,26.001602 16.099789,26.335068 
	C17.463339,28.457182 18.776188,30.243111 19.844933,32.257324 
	C18.400349,32.991543 17.199875,33.497475 15.999399,34.003403 
z" data-index="26" style="opacity: 1;"></path>
<path fill="#352E2F" opacity="1.000000" stroke="none" d="
M34.848820,12.686110 
	C34.320885,13.440155 33.724434,13.915071 32.838982,14.511236 
	C32.028156,14.087374 31.506332,13.542262 30.695044,12.815647 
	C29.599064,10.756871 28.792551,8.879599 27.986038,7.002326 
	C28.305483,6.478972 28.624929,5.955618 29.000105,5.117938 
	C33.856792,5.160118 33.920574,9.083182 34.848820,12.686110 
z" data-index="27" style="visibility: visible; opacity: 1;"></path>
<path fill="#232227" opacity="1.000000" stroke="none" d="
M16.049088,25.998880 
	C15.324219,26.001602 14.599351,26.004326 13.513370,26.013550 
	C12.843967,25.529409 12.535678,25.038769 12.096348,24.289906 
	C11.988234,20.980724 12.011162,17.929764 12.051432,14.460304 
	C12.790871,14.020535 13.512968,13.999264 14.608063,13.979849 
	C14.981060,13.981705 14.998914,13.998300 14.942993,14.345053 
	C13.871625,17.981621 11.968200,21.381752 16.067934,24.358391 
	C16.134163,25.102726 16.180717,25.527197 16.183537,25.966532 
	C16.139803,25.981396 16.049088,25.998880 16.049088,25.998880 
z" data-index="28" style="opacity: 1;"></path>
<path fill="#50535E" opacity="1.000000" stroke="none" d="
M36.992222,16.012741 
	C38.808228,15.520824 40.627312,15.013661 42.377506,14.751869 
	C41.828762,15.012132 41.348911,15.027025 40.543503,15.104493 
	C39.135330,15.446465 38.052723,15.725862 36.970112,16.005259 
	C36.970112,16.005259 36.995304,15.997493 36.992222,16.012741 
z" data-index="29" style="visibility: visible;"></path>
<path fill="#45578B" opacity="1.000000" stroke="none" d="
M40.869061,15.041920 
	C41.348911,15.027025 41.828762,15.012132 42.668617,14.977695 
	C43.286201,15.176937 43.543781,15.395722 43.930527,15.835361 
	C43.640537,16.367613 43.221382,16.679012 42.300499,16.824068 
	C41.488861,16.119122 41.178959,15.580521 40.869061,15.041920 
z" data-index="30" style="visibility: visible;"></path>
<path fill="#3E3633" opacity="1.000000" stroke="none" d="
M16.789934,3.209854 
	C16.839682,3.373000 16.642105,3.592156 16.216282,3.893430 
	C16.140352,3.718221 16.325209,3.481659 16.789934,3.209854 
z" data-index="31" style="visibility: visible;"></path>
<path fill="#10141D" opacity="1.000000" stroke="none" d="
M61.987621,59.047810 
	C61.987621,59.047810 61.993179,59.429146 61.618324,59.654472 
	C60.488686,59.941677 59.733894,60.003563 58.671421,59.949203 
	C57.931938,59.840385 57.500141,59.847813 57.068344,59.855240 
	C53.062687,59.703606 49.057026,59.551975 44.397148,59.431705 
	C43.392426,59.556763 43.239292,59.783699 43.283524,60.143879 
	C43.036205,60.649982 42.788887,61.156086 42.130280,61.781750 
	C41.718983,61.901314 41.267250,61.793819 41.267250,61.793819 
	C41.209618,60.272278 41.151985,58.750732 41.361622,56.825485 
	C41.838905,56.365685 42.048920,56.309593 42.505707,56.387924 
	C43.103142,56.429573 43.453800,56.336811 43.804455,56.244049 
	C44.627853,56.296501 45.451256,56.348957 46.870789,56.345924 
	C47.466927,56.290440 47.886909,56.153206 48.131317,56.335121 
	C48.578255,56.532543 48.780785,56.548046 49.192497,56.734879 
	C50.242897,56.754749 51.084110,56.603291 52.261917,56.461227 
	C53.029678,56.362514 53.460842,56.254414 54.198429,56.349014 
	C55.966354,56.601696 57.427853,56.651680 59.184586,56.797546 
	C59.683403,56.856319 59.886986,56.819202 60.090572,56.782085 
	C60.090572,56.782085 60.069050,56.953587 60.240036,57.226208 
	C60.801105,57.485806 61.191181,57.472782 61.581261,57.459755 
	C61.581261,57.459755 61.897846,57.478561 61.951584,57.937939 
	C61.999420,58.614151 61.993523,58.830982 61.987621,59.047810 
z" data-index="32" style="opacity: 1;"></path>
<path fill="#40414C" opacity="1.000000" stroke="none" d="
M50.963234,43.048695 
	C49.816071,43.182705 48.668903,43.316715 46.850372,43.628464 
	C45.442558,43.894283 44.706116,43.982372 44.046501,43.637238 
	C44.163841,42.033688 44.204350,40.863361 44.214531,39.687363 
	C44.184212,39.681686 44.196709,39.741730 44.537590,39.652847 
	C46.924530,39.959637 48.970592,40.355312 51.001717,41.134041 
	C50.978928,42.027630 50.971081,42.538162 50.963234,43.048695 
z" data-index="33"></path>
<path fill="#BEC1C7" opacity="1.000000" stroke="none" d="
M58.889355,56.701660 
	C57.427853,56.651680 55.966354,56.601696 54.252731,55.962608 
	C53.971790,54.595058 53.942966,53.816612 53.914146,53.038170 
	C55.064121,52.395012 56.214100,51.751850 57.695480,51.396721 
	C58.357880,52.495243 58.688873,53.305737 59.019871,54.116230 
	C59.024967,54.417080 59.023338,54.717896 58.936081,55.548820 
	C58.867901,56.286533 58.878628,56.494099 58.889355,56.701660 
z" data-index="34"></path>
<path fill="#B5BABD" opacity="1.000000" stroke="none" d="
M39.758728,49.042511 
	C39.627701,48.571915 39.496677,48.101322 39.317703,47.028961 
	C39.582279,45.926556 39.894794,45.425915 40.386078,44.715721 
	C40.723125,43.978409 40.881405,43.450645 41.248672,43.149986 
	C41.958046,44.025696 42.458443,44.674301 43.015579,45.579071 
	C43.390850,46.240364 43.709377,46.645489 44.027908,47.050610 
	C44.021717,47.483856 44.015526,47.917099 43.725765,48.673271 
	C43.256451,48.997726 43.070705,48.999260 42.572884,49.010971 
	C41.426785,49.028271 40.592754,49.035389 39.758728,49.042511 
z" data-index="35" style="opacity: 1;"></path>
<path fill="#7D947E" opacity="1.000000" stroke="none" d="
M51.172707,43.335030 
	C50.971081,42.538162 50.978928,42.027630 51.122559,40.934784 
	C51.496574,40.140888 51.771084,39.999947 52.403763,40.042633 
	C53.204926,41.136227 53.684196,42.116837 54.162182,43.358879 
	C54.149712,43.794247 54.138527,43.968182 54.127342,44.142113 
	C53.212288,43.968529 52.297237,43.794945 51.172707,43.335030 
z" data-index="36"></path>
<path fill="#A5AEB2" opacity="1.000000" stroke="none" d="
M44.392857,47.012794 
	C43.709377,46.645489 43.390850,46.240364 43.282227,45.431015 
	C43.668995,44.675701 43.845856,44.324612 44.020943,44.004044 
	C44.019169,44.034561 43.969669,44.070457 43.969669,44.070457 
	C44.706116,43.982372 45.442558,43.894283 46.550297,43.807121 
	C46.200325,44.863686 45.479065,45.919334 44.392857,47.012794 
z" data-index="37"></path>
<path fill="#7A7E7E" opacity="1.000000" stroke="none" d="
M51.925320,56.451828 
	C51.084110,56.603291 50.242897,56.754749 49.161102,56.360741 
	C48.933861,55.565464 48.947197,55.315655 48.958714,54.765030 
	C48.932816,54.265114 48.908737,54.066017 48.884663,53.866913 
	C49.709610,53.568424 50.534561,53.269932 51.712944,53.387558 
	C52.066376,53.803677 52.160938,54.275661 52.192307,54.361217 
	C52.223679,54.446774 52.210403,54.628544 52.133953,55.083553 
	C52.013443,55.842983 51.969383,56.147404 51.925320,56.451828 
z" data-index="38"></path>
<path fill="#7D8C84" opacity="1.000000" stroke="none" d="
M43.819382,55.801449 
	C43.453800,56.336811 43.103142,56.429573 42.522690,55.971863 
	C42.282322,54.314121 42.271751,53.206848 42.420231,51.862206 
	C42.692593,51.070629 42.805901,50.516430 42.926468,49.950531 
	C42.933731,49.938831 42.920109,49.907635 43.167019,49.948723 
	C43.578568,50.017006 43.743210,50.044205 43.907852,50.071404 
	C43.883339,51.833885 43.858826,53.596367 43.819382,55.801449 
z" data-index="39"></path>
<path fill="#A8B1B2" opacity="1.000000" stroke="none" d="
M59.172966,53.865524 
	C58.688873,53.305737 58.357880,52.495243 58.022938,51.346714 
	C58.771145,51.053005 59.523300,51.097332 60.275455,51.141663 
	C59.958988,51.966049 59.642525,52.790432 59.172966,53.865524 
z" data-index="40"></path>
<path fill="#3C3F53" opacity="1.000000" stroke="none" d="
M58.916840,39.022633 
	C59.046638,40.053860 59.176437,41.085087 59.343353,42.505226 
	C59.127651,42.903751 58.874836,42.913364 58.167793,42.667759 
	C57.554630,42.223030 57.367062,42.068188 57.127083,41.935234 
	C57.103294,41.922466 57.075596,41.876114 57.044815,41.543159 
	C56.962406,40.765972 56.910786,40.321735 56.859161,39.877502 
	C57.015224,39.587292 57.234131,39.356766 57.973785,39.094315 
	C58.431683,39.002708 58.916840,39.022633 58.916840,39.022633 
z" data-index="41"></path>
<path fill="#808485" opacity="1.000000" stroke="none" d="
M52.160938,54.275661 
	C52.160938,54.275661 52.066376,53.803677 52.027122,53.568573 
	C52.414509,53.255825 52.841145,53.178177 53.590965,53.069351 
	C53.942966,53.816612 53.971790,54.595058 53.946312,55.759907 
	C53.460842,56.254414 53.029678,56.362514 52.261917,56.461224 
	C51.969383,56.147404 52.013443,55.842983 52.240078,55.072250 
	C52.422653,54.605938 52.451740,54.344658 52.451740,54.344658 
	C52.451740,54.344658 52.160938,54.275661 52.160938,54.275661 
z" data-index="42" style="opacity: 1;"></path>
<path fill="#A8B1B2" opacity="1.000000" stroke="none" d="
M54.310242,44.285152 
	C54.138527,43.968182 54.149712,43.794247 54.376228,43.349991 
	C54.591557,43.079674 55.023365,43.062248 55.285957,43.092094 
	C55.724453,43.131996 55.900356,43.142059 56.076256,43.152122 
	C55.548553,43.577477 55.020847,44.002834 54.310242,44.285152 
z" data-index="43"></path>
<path fill="#919899" opacity="1.000000" stroke="none" d="
M48.579803,53.974991 
	C48.908737,54.066017 48.932816,54.265114 48.732727,54.891861 
	C48.301346,55.597404 48.094128,55.875305 47.886909,56.153206 
	C47.886909,56.153206 47.466927,56.290440 47.262321,56.207111 
	C47.463455,55.443542 47.869198,54.763306 48.579803,53.974991 
z" data-index="44"></path>
<path fill="#A0A7A6" opacity="1.000000" stroke="none" d="
M49.296276,45.727364 
	C49.463066,45.983486 49.466949,46.255272 49.432999,46.522247 
	C49.430412,46.542561 49.159569,46.528748 49.013424,46.530796 
	C49.050243,46.267807 49.087063,46.004814 49.296276,45.727364 
z" data-index="45"></path>
<path fill="#7D947E" opacity="1.000000" stroke="none" d="
M56.352245,43.017204 
	C55.900356,43.142059 55.724453,43.131996 55.477417,42.852135 
	C55.962723,42.346928 56.519157,42.111519 57.075596,41.876114 
	C57.075596,41.876114 57.103294,41.922466 57.142780,42.121857 
	C57.182266,42.321247 57.213238,42.694523 57.213238,42.694523 
	C57.018234,42.757111 56.823235,42.819695 56.352245,43.017204 
z" data-index="46"></path>
<path fill="#27282D" opacity="1.000000" stroke="none" d="
M62.261375,59.003880 
	C61.993523,58.830982 61.999420,58.614151 62.034363,58.073189 
	C62.513695,57.789188 62.963985,57.829319 63.703751,58.056824 
	C63.507191,58.482784 63.021160,58.721367 62.261375,59.003880 
z" data-index="47"></path>
<path fill="#455483" opacity="1.000000" stroke="none" d="
M57.379803,42.741776 
	C57.213238,42.694523 57.182266,42.321247 57.166565,42.134628 
	C57.367062,42.068188 57.554630,42.223030 57.800648,42.571728 
	C57.887726,42.730919 57.546368,42.789032 57.379803,42.741776 
z" data-index="48"></path>
<path fill="#3F3C3B" opacity="1.000000" stroke="none" d="
M61.345139,57.283607 
	C61.191181,57.472782 60.801105,57.485806 60.187050,57.294483 
	C60.345058,57.095909 60.727039,57.101685 61.345139,57.283607 
z" data-index="49"></path>
<path fill="#8D9094" opacity="1.000000" stroke="none" d="
M59.184586,56.797546 
	C58.878628,56.494099 58.867901,56.286533 58.924099,55.774128 
	C59.293655,55.718960 59.596291,55.968636 59.994751,56.500198 
	C59.886986,56.819202 59.683403,56.856319 59.184586,56.797546 
z" data-index="50"></path>
<path fill="#9EABA8" opacity="1.000000" stroke="none" d="
M43.946480,49.804947 
	C43.743210,50.044205 43.578568,50.017006 43.153816,49.722603 
	C42.893707,49.455391 42.884960,49.000790 42.884960,49.000790 
	C43.070705,48.999260 43.256451,48.997726 43.720798,48.998199 
	C43.994640,49.179634 43.989872,49.359062 43.946480,49.804947 
z" data-index="51"></path>
<path fill="#1E262E" opacity="1.000000" stroke="none" d="
M16.901852,39.008755 
	C16.920803,38.563049 16.939756,38.117348 17.302319,37.465019 
	C20.257816,37.803139 22.869707,38.347885 25.570789,38.950603 
	C25.659979,39.008572 25.880302,39.045364 26.058121,39.200653 
	C26.471212,39.565060 26.710369,39.769630 26.968220,40.314514 
	C26.993116,41.119579 27.003208,41.579796 27.060301,42.356018 
	C27.389923,43.474628 27.672546,44.277229 27.751535,45.187241 
	C27.302359,45.488182 27.104694,45.722164 26.954908,45.996605 
	C26.199301,46.006710 25.443695,46.016811 23.979980,45.971649 
	C21.192356,44.599445 19.112835,43.282513 17.033316,41.965576 
	C17.033316,41.965576 17.000587,42.000607 17.059427,41.721397 
	C17.046127,40.631042 16.973989,39.819897 16.901852,39.008755 
z" data-index="52" style="opacity: 1;"></path>
<path fill="#3D4147" opacity="1.000000" stroke="none" d="
M17.014450,42.309589 
	C19.112835,43.282513 21.192356,44.599445 23.602627,45.990967 
	C22.192823,50.767040 20.302622,45.726830 18.161694,46.144829 
	C17.435318,46.094212 17.043583,46.047832 16.359407,45.954395 
	C16.376509,44.822758 16.686047,43.738182 17.014450,42.309589 
z" data-index="53"></path>
<path fill="#3F4147" opacity="1.000000" stroke="none" d="
M33.046791,53.946510 
	C28.423319,53.963379 29.028896,50.343517 28.955685,47.485752 
	C30.241518,48.332687 31.120291,49.172714 31.999699,50.004654 
	C32.000336,49.996559 31.984255,50.000999 32.000790,50.301212 
	C32.352051,51.070904 32.686779,51.540386 33.021503,52.009865 
	C33.021503,52.009865 32.989803,52.005333 32.979668,52.319603 
	C32.995285,53.071423 33.021038,53.508965 33.046791,53.946510 
z" data-index="54"></path>
<path fill="#141720" opacity="1.000000" stroke="none" d="
M31.999063,50.012745 
	C31.120291,49.172714 30.241518,48.332687 29.182938,47.244995 
	C28.890890,46.705196 28.718632,46.454266 28.255547,45.887840 
	C28.024738,45.531139 27.955170,45.079830 27.955170,45.079830 
	C27.672546,44.277229 27.389923,43.474628 27.326342,42.501480 
	C28.362103,43.220257 29.178823,44.109581 30.167248,45.298283 
	C30.892323,47.069355 31.445694,48.541050 31.999063,50.012745 
z" data-index="55"></path>
<path fill="#141720" opacity="1.000000" stroke="none" d="
M33.241737,54.089794 
	C33.021038,53.508965 32.995285,53.071423 32.986759,52.305252 
	C33.482021,52.863213 33.960052,53.749802 34.223339,54.821777 
	C33.873611,54.708012 33.682972,54.449986 33.241737,54.089794 
z" data-index="56"></path>
<path fill="#111922" opacity="1.000000" stroke="none" d="
M34.240074,60.481945 
	C33.992363,61.123230 33.717720,61.407066 33.194855,61.850975 
	C33.136841,60.839577 33.327049,59.668114 33.764809,58.236359 
	C34.079285,58.692215 34.146214,59.408356 34.240074,60.481945 
z" data-index="57"></path>
<path fill="#3F4147" opacity="1.000000" stroke="none" d="
M27.751535,45.187241 
	C27.955170,45.079830 28.024738,45.531139 28.067537,45.755432 
	C27.917953,45.985397 27.725571,45.991062 27.244049,45.996666 
	C27.104694,45.722164 27.302359,45.488182 27.751535,45.187241 
z" data-index="58"></path>
<path fill="#C2C4CB" opacity="1.000000" stroke="none" d="
M52.081871,39.929649 
	C51.771084,39.999947 51.496574,40.140888 51.137497,40.551727 
	C48.970592,40.355312 46.924530,39.959637 44.456367,39.211666 
	C43.991779,38.563293 43.949295,38.267220 43.939034,37.610748 
	C43.851341,36.785358 43.731434,36.320370 43.676727,35.552498 
	C43.849915,34.853497 43.957901,34.457375 44.041473,34.034599 
	C44.017063,34.007942 44.017780,34.080235 44.438622,33.984535 
	C44.981461,33.068256 45.103455,32.247673 45.395641,31.436077 
	C45.813427,31.393757 45.974991,31.247387 46.050522,31.005957 
	C46.050522,31.005957 45.991814,31.027491 46.237358,31.247957 
	C47.335770,31.980434 48.188637,32.492443 49.424713,32.995155 
	C50.310070,32.890358 50.812222,32.794853 51.464500,33.019409 
	C52.491665,33.462452 53.368694,33.585434 54.245724,33.708416 
	C54.143921,34.392715 54.042114,35.077015 53.655907,36.551216 
	C53.312637,37.786530 53.253769,38.231934 53.026882,38.808205 
	C52.599861,39.269264 52.340866,39.599457 52.081871,39.929649 
z" data-index="59" style="opacity: 1;"></path>
<path fill="#42493F" opacity="1.000000" stroke="none" d="
M54.257236,33.515007 
	C53.368694,33.585434 52.491665,33.462452 51.500687,32.769897 
	C51.299900,31.429504 51.213058,30.658678 51.126213,29.887854 
	C52.588230,30.653082 57.261230,28.479639 54.257236,33.515007 
z" data-index="60"></path>
<path fill="#8D9094" opacity="1.000000" stroke="none" d="
M50.984612,29.640308 
	C51.213058,30.658678 51.299900,31.429504 51.350555,32.449841 
	C50.812222,32.794853 50.310070,32.890358 49.386944,32.672565 
	C48.646534,31.561974 48.327099,30.764677 48.026405,29.749165 
	C48.045151,29.530947 48.063217,29.093279 48.304546,28.916414 
	C48.847454,28.474771 49.149033,28.209993 49.450615,27.945215 
	C49.450615,27.945217 49.689159,27.950264 49.807693,27.948250 
	C50.231823,28.428410 50.537415,28.910585 50.984612,29.640308 
z" data-index="61"></path>
<path fill="#455483" opacity="1.000000" stroke="none" d="
M52.403763,40.042633 
	C52.340866,39.599457 52.599861,39.269264 53.473392,38.899059 
	C54.386948,38.905022 54.685966,38.950996 54.984989,38.996971 
	C55.431625,39.274284 55.878265,39.551598 56.592033,39.853203 
	C56.910786,40.321735 56.962406,40.765972 57.044815,41.543159 
	C56.519157,42.111519 55.962723,42.346928 55.214825,42.822289 
	C55.023365,43.062248 54.591557,43.079674 54.377510,43.088558 
	C53.684196,42.116837 53.204926,41.136227 52.403763,40.042633 
z" data-index="62"></path>
<path fill="#3D4569" opacity="1.000000" stroke="none" d="
M58.958527,38.745850 
	C58.916840,39.022633 58.431683,39.002708 58.189198,38.987003 
	C58.192204,38.370510 58.437695,37.769726 58.683186,37.168938 
	C58.788860,37.602314 58.894535,38.035686 58.958527,38.745850 
z" data-index="63"></path>
<path fill="#8E95A0" opacity="1.000000" stroke="none" d="
M63.429291,38.939117 
	C63.662197,39.270535 63.740520,39.834190 63.747730,40.821800 
	C63.542652,40.554287 63.408684,39.862823 63.429291,38.939117 
z" data-index="64"></path>
<path fill="#45557D" opacity="1.000000" stroke="none" d="
M54.955956,38.668255 
	C54.685966,38.950996 54.386948,38.905022 53.641415,38.768196 
	C53.253769,38.231934 53.312637,37.786530 53.570282,37.062977 
	C54.155010,37.303066 54.540970,37.821304 54.955956,38.668255 
z" data-index="65"></path>
<path fill="#252C34" opacity="1.000000" stroke="none" d="
M5.150334,48.285011 
	C6.157108,46.441433 7.297106,44.891254 8.713383,43.169655 
	C10.589161,45.522224 12.188662,48.046215 14.029758,50.951443 
	C11.914862,50.825108 10.200969,50.722725 8.236627,50.815582 
	C7.085306,50.200016 6.184433,49.389214 5.150334,48.285011 
z" data-index="66"></path>
<path fill="#3D4147" opacity="1.000000" stroke="none" d="
M7.988526,36.422089 
	C10.185699,37.211071 12.459522,38.352428 14.869093,39.743000 
	C13.266772,40.325584 11.528705,40.658958 9.407794,40.986763 
	C8.705027,39.578957 8.385102,38.176712 7.988526,36.422089 
z" data-index="67"></path>
<path fill="#3D4147" opacity="1.000000" stroke="none" d="
M16.663881,39.128204 
	C16.973989,39.819897 17.046127,40.631042 17.079128,41.707073 
	C16.408836,41.514671 15.777680,41.057377 15.076455,40.295105 
	C15.479561,39.742638 15.952736,39.495144 16.663881,39.128204 
z" data-index="68"></path>
<path fill="#3E3E42" opacity="1.000000" stroke="none" d="
M31.999699,50.004654 
	C31.445694,48.541050 30.892323,47.069355 30.169559,44.891113 
	C30.030041,43.099056 30.059916,42.013546 30.380238,41.021328 
	C31.118797,41.735954 31.566910,42.357288 31.825296,43.195770 
	C32.597034,44.266083 33.558495,45.119251 34.735107,46.037376 
	C34.950256,46.102329 35.248650,46.438480 35.248650,46.438480 
	C34.797630,47.526855 34.346615,48.615234 33.249725,49.819206 
	C32.397316,49.956867 32.190788,49.978931 31.984255,50.000999 
	C31.984255,50.000999 32.000336,49.996559 31.999699,50.004654 
z" data-index="69"></path>
<path fill="#8C9E8E" opacity="1.000000" stroke="none" d="
M40.207314,44.925274 
	C39.894794,45.425915 39.582279,45.926556 39.152084,46.697708 
	C38.534229,46.924294 38.034046,46.880360 37.151680,46.468601 
	C36.779316,45.737782 36.789127,45.374786 36.881088,44.630054 
	C36.959026,43.472767 36.954819,42.697220 36.978096,41.951172 
	C37.005585,41.980675 36.934029,41.944065 37.139519,42.012550 
	C37.345009,42.081036 37.756741,42.215748 37.865208,42.325851 
	C38.097267,42.430576 38.220856,42.425198 38.344448,42.419819 
	C38.301403,42.198994 38.258354,41.978165 38.139050,41.513313 
	C38.023148,41.102215 37.983505,40.935143 37.954948,40.573936 
	C37.966042,40.379795 38.039268,39.997837 38.371368,40.013870 
	C39.141800,40.091682 39.580132,40.153454 39.981430,40.609447 
	C40.032040,42.310871 40.119675,43.618073 40.207314,44.925274 
z" data-index="70" style="opacity: 1;"></path>
<path fill="#C2C4CB" opacity="1.000000" stroke="none" d="
M42.572884,49.010971 
	C42.884960,49.000790 42.893707,49.455391 42.906906,49.681511 
	C42.920109,49.907635 42.933731,49.938831 42.717842,50.162170 
	C42.421696,50.956867 42.341438,51.528225 42.261181,52.099579 
	C42.271751,53.206848 42.282322,54.314121 42.275909,55.837448 
	C42.048920,56.309593 41.838905,56.365685 41.303974,56.448658 
	C40.402184,54.202190 39.825314,51.928837 39.503586,49.348999 
	C40.592754,49.035389 41.426785,49.028271 42.572884,49.010971 
z" data-index="71"></path>
<path fill="#C0C1C7" opacity="1.000000" stroke="none" d="
M36.798939,45.011795 
	C36.789127,45.374786 36.779316,45.737782 36.787651,46.372551 
	C36.461040,46.596024 36.116272,46.547718 35.510078,46.468948 
	C35.248650,46.438480 34.950256,46.102329 34.656017,45.794289 
	C34.183563,45.006714 34.005348,44.527180 33.901871,43.802620 
	C34.005619,43.389286 34.034626,43.220982 34.382706,43.028633 
	C35.122181,42.940296 35.542591,42.875999 36.003830,43.110222 
	C36.296085,43.943089 36.547512,44.477444 36.798939,45.011795 
z" data-index="72"></path>
<path fill="#303034" opacity="1.000000" stroke="none" d="
M41.196991,62.289597 
	C41.267250,61.793819 41.718983,61.901314 41.935314,61.985561 
	C42.188648,62.990726 42.225647,63.911640 41.775913,64.810524 
	C41.235031,64.120781 41.180885,63.453075 41.196991,62.289597 
z" data-index="73"></path>
<path fill="#141720" opacity="1.000000" stroke="none" d="
M32.000790,50.301212 
	C32.190788,49.978931 32.397316,49.956867 32.915627,49.960369 
	C33.199657,50.437756 33.171913,50.889576 33.082836,51.675629 
	C32.686779,51.540386 32.352051,51.070904 32.000790,50.301212 
z" data-index="74"></path>
<path fill="#A6B0AC" opacity="1.000000" stroke="none" d="
M57.044956,60.247036 
	C57.500141,59.847813 57.931938,59.840385 58.669540,60.319759 
	C58.966263,61.548260 58.957184,62.289959 58.948101,63.031662 
	C58.510403,63.019005 58.072708,63.006351 57.305916,62.992279 
	C56.991737,62.206852 57.006653,61.422844 57.044956,60.247036 
z" data-index="75"></path>
<path fill="#7A7D82" opacity="1.000000" stroke="none" d="
M43.482582,60.149864 
	C43.239292,59.783699 43.392426,59.556763 43.958199,59.524441 
	C44.141838,59.889961 43.977894,60.079971 43.482582,60.149864 
z" data-index="76"></path>
<path fill="#839C96" opacity="1.000000" stroke="none" d="
M58.963181,63.024475 
	C58.957184,62.289959 58.966263,61.548260 58.977226,60.436005 
	C59.733894,60.003563 60.488686,59.941677 61.621437,59.845135 
	C62.461456,60.119976 62.923512,60.429478 63.538788,60.971649 
	C63.553482,61.408062 63.376923,61.570454 62.693340,61.814201 
	C61.770695,61.947136 61.317051,61.957355 60.820015,61.888657 
	C60.646931,61.669422 60.498077,61.651733 60.262478,62.094910 
	C60.172821,62.662048 60.150749,62.890938 60.128681,63.119831 
	C60.128681,63.119831 60.055584,63.133202 59.810509,63.095760 
	C59.377975,63.038025 59.190514,63.017731 59.003052,62.997433 
	C59.003052,62.997433 58.978260,63.017288 58.963181,63.024475 
z" data-index="77"></path>
<path fill="#99A4A1" opacity="1.000000" stroke="none" d="
M60.446480,63.104553 
	C60.150749,62.890938 60.172821,62.662048 60.394569,62.146622 
	C60.594250,61.860088 60.863403,61.967575 60.863403,61.967575 
	C61.317051,61.957355 61.770695,61.947136 62.562836,61.939392 
	C62.188976,62.324337 61.476627,62.706806 60.446480,63.104553 
z" data-index="78"></path>
<path fill="#99A4A1" opacity="1.000000" stroke="none" d="
M59.136257,63.225365 
	C59.190514,63.017731 59.377975,63.038025 59.845291,63.108917 
	C60.120918,63.327888 60.116684,63.496269 60.080452,63.916885 
	C59.788788,63.930519 59.529125,63.691910 59.136257,63.225365 
z" data-index="79"></path>
<path fill="#4163BD" opacity="1.000000" stroke="none" d="
M34.124771,26.084719 
	C34.563656,25.790926 35.002544,25.497135 35.686516,25.104031 
	C37.940235,26.656563 39.948868,28.308411 42.040405,30.649258 
	C42.175518,31.571299 42.227730,31.804344 42.239960,32.250847 
	C42.199978,32.464306 42.131393,32.893196 42.093651,33.307186 
	C42.038414,34.820721 42.020920,35.920261 41.978951,37.026741 
	C41.954483,37.033680 41.903896,37.039017 41.598618,36.971554 
	C40.216427,36.255688 39.139515,35.607285 37.780785,34.971996 
	C37.312752,35.011566 37.126534,35.038017 36.956192,35.058125 
	C36.972065,35.051781 36.943687,35.035114 36.920563,34.741417 
	C36.563278,33.991112 36.229115,33.534508 35.632515,33.143997 
	C34.633980,32.163994 33.897888,31.117901 33.301613,29.939323 
	C33.276249,29.526682 33.111065,29.246525 32.922573,28.645424 
	C32.905052,27.895742 32.910839,27.467001 33.162674,26.941212 
	C33.647408,26.591015 33.886089,26.337868 34.124771,26.084719 
z" data-index="80" style="opacity: 1;"></path>

<path fill="#4468BD" opacity="1.000000" stroke="none" d="
M48.007668,29.967381 
	C48.327099,30.764677 48.646534,31.561974 49.003731,32.681862 
	C48.188637,32.492443 47.335770,31.980434 46.255951,31.273094 
	C46.012020,30.905731 45.995045,30.733696 45.989700,30.276222 
	C46.001331,29.990782 46.053616,29.932177 46.053616,29.932177 
	C46.053616,29.932177 46.419418,29.897673 46.909035,29.927029 
	C47.601658,29.960051 47.804661,29.963717 48.007668,29.967381 
z" data-index="82"></path>
<path fill="#7D8583" opacity="1.000000" stroke="none" d="
M42.131393,32.893196 
	C42.131393,32.893196 42.199978,32.464306 42.521656,32.192299 
	C43.031582,31.878454 43.219826,31.836611 43.408066,31.794769 
	C43.408066,31.794769 43.484474,31.802565 43.643654,32.189373 
	C43.874485,33.077530 43.946133,33.578884 44.017780,34.080235 
	C44.017780,34.080235 44.017063,34.007942 43.757729,33.980080 
	C43.042725,33.599213 42.587059,33.246204 42.131393,32.893196 
z" data-index="83"></path>
<path fill="#4058A3" opacity="1.000000" stroke="none" d="
M48.026409,29.749165 
	C47.804661,29.963717 47.601658,29.960051 47.092323,29.939554 
	C47.020912,29.095028 47.255836,28.267336 47.749016,27.584930 
	C48.025917,28.184572 48.044567,28.638926 48.063217,29.093279 
	C48.063217,29.093279 48.045151,29.530947 48.026409,29.749165 
z" data-index="84"></path>
<path fill="#42493F" opacity="1.000000" stroke="none" d="
M44.438622,33.984535 
	C43.946133,33.578884 43.874485,33.077530 43.651596,32.226944 
	C43.858112,31.650818 44.215866,31.423923 44.869308,31.315109 
	C45.164997,31.433187 45.225452,31.427094 45.225452,31.427094 
	C45.103455,32.247673 44.981461,33.068256 44.438622,33.984535 
z" data-index="85"></path>
<path fill="#52628B" opacity="1.000000" stroke="none" d="
M48.304546,28.916414 
	C48.044567,28.638926 48.025917,28.184572 48.010258,27.390202 
	C48.356583,27.209742 48.699921,27.369297 49.246933,27.737034 
	C49.149033,28.209993 48.847454,28.474771 48.304546,28.916414 
z" data-index="86"></path>
<path fill="#747D86" opacity="1.000000" stroke="none" d="
M43.244602,31.538486 
	C43.219826,31.836611 43.031582,31.878454 42.561638,31.978844 
	C42.227730,31.804344 42.175518,31.571299 42.094101,30.977367 
	C42.403641,30.838387 42.742390,31.060295 43.244602,31.538486 
z" data-index="87"></path>
<path fill="#4468BD" opacity="1.000000" stroke="none" d="
M45.972542,30.017485 
	C45.943748,30.044188 45.616428,29.754768 45.616428,29.754768 
	C45.616428,29.754768 45.936222,29.735971 45.994919,29.834074 
	C46.053616,29.932177 46.001331,29.990782 45.972542,30.017485 
z" data-index="88"></path>
<path fill="#4468BD" opacity="1.000000" stroke="none" d="
M45.395641,31.436077 
	C45.225452,31.427094 45.164997,31.433187 45.186813,31.410828 
	C45.208626,31.388466 45.631165,31.200701 45.840843,31.103329 
	C45.974991,31.247387 45.813427,31.393757 45.395641,31.436077 
z" data-index="89"></path>
<path fill="#232227" opacity="1.000000" stroke="none" d="
M27.530703,7.001647 
	C28.792551,8.879599 29.599064,10.756871 30.690004,13.142753 
	C30.935360,14.085133 30.896292,14.518904 30.539806,14.905415 
	C28.127157,14.409019 25.754135,13.328951 25.506067,17.333166 
	C25.533543,18.465658 25.509167,19.222471 25.172859,19.969837 
	C23.233143,18.983309 21.605360,18.006227 19.971287,16.779184 
	C19.966715,16.362537 19.968435,16.195850 19.816593,15.835260 
	C19.107422,15.759193 18.551811,15.877028 17.744701,15.999123 
	C17.325558,15.999447 17.157913,15.995514 16.851078,15.739564 
	C16.140896,14.991131 15.569905,14.494716 14.998914,13.998300 
	C14.998914,13.998300 14.981060,13.981705 14.970226,13.971025 
	C15.258843,9.116001 17.470835,6.432188 22.684998,6.974383 
	C24.133711,7.125028 25.611122,6.999691 27.530703,7.001647 
z" data-index="90" style="visibility: visible; opacity: 1;"></path>
<path fill="#BE9986" opacity="1.000000" stroke="none" d="
M31.123116,17.572460 
	C31.141056,20.128056 31.158998,22.683653 31.051834,25.905872 
	C30.847281,26.973152 30.767834,27.373804 30.424576,27.806982 
	C29.811094,27.913290 29.461424,27.987074 28.809387,28.042366 
	C28.305334,28.013359 28.103651,28.002842 27.857662,27.694664 
	C27.241283,26.911060 26.669216,26.425121 25.901028,25.753578 
	C25.993034,24.816011 26.281162,24.064051 26.820229,23.404663 
	C27.711578,22.324167 28.351988,21.151096 29.084824,19.658237 
	C29.825869,18.749783 30.474491,18.161121 31.123116,17.572460 
z" data-index="91"></path>
<path fill="#2F292C" opacity="1.000000" stroke="none" d="
M31.171490,17.415241 
	C30.474491,18.161121 29.825869,18.749783 28.796633,19.468643 
	C27.428751,18.718391 26.441484,17.837940 25.454218,16.957487 
	C25.754135,13.328951 28.127157,14.409019 30.663952,15.139795 
	C31.312731,15.893745 31.519955,16.366055 31.727177,16.838364 
	C31.515369,16.926722 31.346264,17.066610 31.171490,17.415241 
z" data-index="92" style="visibility: visible; opacity: 1;"></path>
<path fill="#453937" opacity="1.000000" stroke="none" d="
M32.002232,16.711685 
	C31.519955,16.366055 31.312731,15.893745 30.981365,15.187056 
	C30.896292,14.518904 30.935360,14.085133 30.979469,13.324255 
	C31.506332,13.542262 32.028156,14.087374 32.771790,14.808737 
	C32.754826,15.518327 32.516056,16.051666 32.002232,16.711685 
z" data-index="93" style="visibility: visible; opacity: 1;"></path>
<path fill="#453937" opacity="1.000000" stroke="none" d="
M30.688387,27.774458 
	C30.767834,27.373804 30.847281,26.973152 31.052002,26.292459 
	C31.177277,26.012421 31.562450,26.011311 31.883167,26.209986 
	C32.392479,26.673988 32.630062,26.883856 32.916630,27.038261 
	C32.910839,27.467001 32.905052,27.895742 32.597870,28.641047 
	C31.862341,28.959610 31.428205,28.961607 30.927784,28.663712 
	C30.803797,28.167366 30.746092,27.970913 30.688387,27.774458 
z" data-index="94"></path>
<path fill="#575257" opacity="1.000000" stroke="none" d="
M33.162674,26.941212 
	C32.630062,26.883856 32.392479,26.673988 32.075706,26.205544 
	C32.431576,26.014006 32.915630,26.025585 33.762226,26.060944 
	C33.886089,26.337868 33.647408,26.591015 33.162674,26.941212 
z" data-index="95"></path>
<path fill="#35393F" opacity="1.000000" stroke="none" d="
M25.481598,38.892635 
	C22.869707,38.347885 20.257816,37.803139 17.325125,37.131203 
	C16.696375,36.214535 16.388426,35.425053 16.039940,34.319489 
	C17.199875,33.497475 18.400349,32.991543 20.137512,32.289581 
	C21.407578,32.386154 22.140957,32.678753 22.936977,33.353809 
	C23.351276,34.994225 23.702930,36.252190 24.339224,37.614944 
	C24.931932,37.968498 25.240000,38.217258 25.511444,38.569557 
	C25.474821,38.673096 25.481598,38.892635 25.481598,38.892635 
z" data-index="96" style="opacity: 1;"></path>
<path fill="#352D2E" opacity="1.000000" stroke="none" d="
M22.874334,32.971355 
	C22.140957,32.678753 21.407578,32.386154 20.381618,32.061295 
	C18.776188,30.243111 17.463339,28.457182 16.099789,26.335068 
	C16.049088,25.998880 16.139803,25.981396 16.513626,26.046932 
	C18.044914,26.286919 19.202379,26.461370 20.498924,26.656782 
	C20.304379,23.064119 20.140978,20.046633 19.977579,17.029146 
	C21.605360,18.006227 23.233143,18.983309 25.246838,20.406494 
	C25.944929,21.672430 26.257109,22.492260 26.569290,23.312090 
	C26.281162,24.064051 25.993034,24.816011 25.926109,26.113905 
	C26.207531,27.136415 26.267748,27.612995 26.162735,28.384090 
	C25.779955,29.725346 25.562407,30.772081 25.187943,32.075211 
	C24.933510,32.506191 24.835991,32.680775 24.427589,32.859192 
	C23.702583,32.899132 23.288458,32.935242 22.874334,32.971355 
z" data-index="97" style="opacity: 1;"></path>
<path fill="#443836" opacity="1.000000" stroke="none" d="
M19.971287,16.779184 
	C20.140978,20.046633 20.304379,23.064119 20.498924,26.656782 
	C19.202379,26.461370 18.044914,26.286919 16.557360,26.032068 
	C16.180717,25.527197 16.134163,25.102726 16.070736,23.927383 
	C16.365999,20.781534 16.678135,18.386557 16.990269,15.991581 
	C17.157913,15.995514 17.325558,15.999447 18.073914,16.003445 
	C19.093134,16.012062 19.531645,16.020613 19.970156,16.029163 
	C19.968435,16.195850 19.966715,16.362537 19.971287,16.779184 
z" data-index="98" style="opacity: 1;"></path>
<path fill="#111922" opacity="1.000000" stroke="none" d="
M16.851078,15.739564 
	C16.678135,18.386557 16.365999,20.781534 16.051062,23.607517 
	C11.968200,21.381752 13.871625,17.981621 14.942993,14.345053 
	C15.569905,14.494716 16.140896,14.991131 16.851078,15.739564 
z" data-index="99" style="opacity: 1;"></path>
<path fill="#C3C4CB" opacity="1.000000" stroke="none" d="
M48.131317,56.335121 
	C48.094128,55.875305 48.301346,55.597404 48.734550,55.192680 
	C48.947197,55.315655 48.933861,55.565464 48.951920,56.189407 
	C48.780785,56.548046 48.578255,56.532543 48.131317,56.335121 
z" data-index="100"></path>
<path fill="#AFB3B9" opacity="1.000000" stroke="none" d="
M40.386078,44.715721 
	C40.119675,43.618073 40.032040,42.310871 39.988415,40.548683 
	C40.032429,40.093697 39.988014,39.981861 40.246124,39.985756 
	C40.675297,39.970840 40.846355,39.952030 41.422569,39.948845 
	C42.633438,39.873989 43.439148,39.783512 44.244858,39.693035 
	C44.204350,40.863361 44.163841,42.033688 44.046501,43.637238 
	C43.969669,44.070457 44.019169,44.034561 43.789005,43.834160 
	C42.719124,43.396801 41.879402,43.159840 41.039688,42.922878 
	C40.881405,43.450645 40.723125,43.978409 40.386078,44.715721 
z" data-index="101"></path>
<path fill="#717987" opacity="1.000000" stroke="none" d="
M44.214535,39.687363 
	C43.439148,39.783512 42.633438,39.873989 41.543602,39.668236 
	C41.474281,38.594341 41.689091,37.816677 41.903896,37.039017 
	C41.903896,37.039017 41.954483,37.033680 42.258476,37.073555 
	C42.749802,37.138332 42.937134,37.163235 43.233288,37.337944 
	C43.502991,37.680813 43.691227,37.841946 43.906815,37.971146 
	C43.949295,38.267220 43.991779,38.563293 44.115486,39.300549 
	C44.196709,39.741730 44.184212,39.681686 44.214535,39.687363 
z" data-index="102"></path>
<path fill="#65716D" opacity="1.000000" stroke="none" d="
M41.248669,43.149986 
	C41.879402,43.159840 42.719124,43.396801 43.790779,43.803642 
	C43.845856,44.324612 43.668995,44.675701 43.225487,45.174850 
	C42.458443,44.674301 41.958046,44.025696 41.248669,43.149986 
z" data-index="103"></path>
<path fill="#C3C4CB" opacity="1.000000" stroke="none" d="
M52.192307,54.361217 
	C52.160938,54.275661 52.451740,54.344658 52.451740,54.344658 
	C52.451740,54.344658 52.422653,54.605938 52.316528,54.617241 
	C52.210403,54.628544 52.223679,54.446774 52.192307,54.361217 
z" data-index="104"></path>
<path fill="#9EABA8" opacity="1.000000" stroke="none" d="
M42.420231,51.862206 
	C42.341438,51.528225 42.421696,50.956867 42.710579,50.173870 
	C42.805901,50.516430 42.692593,51.070629 42.420231,51.862206 
z" data-index="105"></path>
<path fill="#11151E" opacity="1.000000" stroke="none" d="
M25.548067,38.466022 
	C25.240000,38.217258 24.931932,37.968498 24.694000,37.538998 
	C24.993561,37.283199 25.222984,37.208141 25.690416,37.027382 
	C25.921516,35.916203 25.914610,34.910725 25.991304,33.637627 
	C26.136885,33.003841 26.198864,32.637669 26.491161,32.222588 
	C26.721479,32.173672 27.169348,32.028168 27.294720,32.216625 
	C27.597492,32.650230 27.750959,32.909538 27.935040,33.432854 
	C28.049925,33.842152 28.110266,34.001602 28.280785,34.480492 
	C28.753292,36.088604 29.115622,37.377277 29.216450,38.918339 
	C28.287771,39.437038 27.620592,39.703350 26.953413,39.969662 
	C26.710369,39.769630 26.471212,39.565060 26.104401,39.039658 
	C25.972860,38.723366 25.866848,38.416637 25.866848,38.416637 
	C25.866848,38.416637 25.548067,38.466022 25.548067,38.466022 
z" data-index="106" style="opacity: 1;"></path>
<path fill="#26262C" opacity="1.000000" stroke="none" d="
M26.968220,40.314514 
	C27.620592,39.703350 28.287771,39.437038 29.318642,39.194489 
	C29.818151,39.788177 29.953972,40.358109 30.089792,40.928036 
	C30.059916,42.013546 30.030041,43.099056 29.997854,44.591736 
	C29.178823,44.109581 28.362103,43.220257 27.279341,42.185471 
	C27.003208,41.579796 26.993116,41.119579 26.968220,40.314514 
z" data-index="107"></path>
<path fill="#26262C" opacity="1.000000" stroke="none" d="
M25.511444,38.569557 
	C25.548067,38.466022 25.866848,38.416637 25.866848,38.416637 
	C25.866848,38.416637 25.972860,38.723366 25.926582,38.884365 
	C25.880302,39.045364 25.659979,39.008572 25.570789,38.950603 
	C25.481598,38.892635 25.474821,38.673096 25.511444,38.569557 
z" data-index="108"></path>
<path fill="#404B7E" opacity="1.000000" stroke="none" d="
M43.124466,37.188141 
	C42.937134,37.163235 42.749802,37.138332 42.282948,37.066620 
	C42.020920,35.920261 42.038414,34.820721 42.093651,33.307186 
	C42.587059,33.246204 43.042725,33.599213 43.782139,34.006737 
	C43.957901,34.457375 43.849915,34.853497 43.540794,35.750751 
	C43.208904,36.550396 43.137169,36.862480 43.124466,37.188141 
z" data-index="109" style="opacity: 1;"></path>
<path fill="#7D8583" opacity="1.000000" stroke="none" d="
M43.233288,37.337944 
	C43.137169,36.862480 43.208904,36.550396 43.475594,36.053631 
	C43.731434,36.320370 43.851341,36.785358 43.939034,37.610748 
	C43.691227,37.841946 43.502991,37.680813 43.233288,37.337944 
z" data-index="110"></path>

<path fill="#30353C" opacity="1.000000" stroke="none" d="
M33.827133,44.047653 
	C34.005348,44.527180 34.183563,45.006714 34.440865,45.729332 
	C33.558495,45.119251 32.597034,44.266083 31.825296,43.195770 
	C32.015022,42.978622 32.000332,42.997383 32.173473,43.203316 
	C32.840118,43.622047 33.333626,43.834850 33.827133,44.047653 
z" data-index="112"></path>
<path fill="#4360A5" opacity="1.000000" stroke="none" d="
M38.371368,40.013870 
	C38.039268,39.997837 37.989468,39.549389 38.003555,38.977264 
	C37.983585,37.944389 37.949528,37.483643 37.982529,37.015610 
	C38.049580,37.008324 38.181622,36.980694 38.378590,37.197227 
	C39.046379,38.269791 39.517197,39.125828 39.988014,39.981861 
	C39.988014,39.981861 40.032429,40.093697 40.025444,40.154461 
	C39.580132,40.153454 39.141800,40.091682 38.371368,40.013870 
z" data-index="113"></path>
<path fill="#ACB3B3" opacity="1.000000" stroke="none" d="
M36.003830,43.110222 
	C36.012753,42.470276 36.188175,42.215317 36.719940,41.984253 
	C36.954819,42.697220 36.959026,43.472767 36.881088,44.630054 
	C36.547512,44.477444 36.296085,43.943089 36.003830,43.110222 
z" data-index="114"></path>
<path fill="#AFB3B9" opacity="1.000000" stroke="none" d="
M38.215305,41.757339 
	C38.258354,41.978165 38.301403,42.198994 38.344448,42.419819 
	C38.220856,42.425198 38.097267,42.430576 37.982826,42.211632 
	C37.991978,41.987309 38.215305,41.757339 38.215305,41.757339 
z" data-index="115"></path>
<path fill="#ACB3B3" opacity="1.000000" stroke="none" d="
M37.139519,42.012550 
	C37.136395,41.663162 37.338760,41.382259 37.742493,40.934715 
	C37.983505,40.935143 38.023148,41.102215 38.139050,41.513313 
	C38.215305,41.757339 37.991978,41.987309 37.874359,42.101528 
	C37.756741,42.215748 37.345009,42.081036 37.139519,42.012550 
z" data-index="116" style="opacity: 1;"></path>
<path fill="#3E3E42" opacity="1.000000" stroke="none" d="
M33.901871,43.802620 
	C33.333626,43.834850 32.840118,43.622047 32.175735,43.195812 
	C32.462639,42.995815 32.920422,43.009247 33.720917,43.037682 
	C34.034626,43.220982 34.005619,43.389286 33.901871,43.802620 
z" data-index="117"></path>
<path fill="#C0C1C7" opacity="1.000000" stroke="none" d="
M60.820015,61.888657 
	C60.863403,61.967575 60.594250,61.860088 60.462158,61.808380 
	C60.498077,61.651733 60.646931,61.669422 60.820015,61.888657 
z" data-index="118"></path>
<path fill="#5171B3" opacity="1.000000" stroke="none" d="
M40.246124,39.985756 
	C39.517197,39.125828 39.046379,38.269791 38.330864,36.862457 
	C38.078320,35.860401 38.070465,35.409641 38.062607,34.958881 
	C39.139515,35.607285 40.216427,36.255688 41.598618,36.971554 
	C41.689091,37.816677 41.474281,38.594341 41.138443,39.652611 
	C40.846355,39.952030 40.675297,39.970840 40.246124,39.985756 
z" data-index="119" style="opacity: 1;"></path>
<path fill="#575257" opacity="1.000000" stroke="none" d="
M33.301613,29.939325 
	C32.579807,29.856955 31.997818,29.642097 31.204948,29.195423 
	C31.428205,28.961607 31.862341,28.959610 32.621178,28.961990 
	C33.111065,29.246525 33.276249,29.526682 33.301613,29.939325 
z" data-index="120"></path>
<path fill="#495987" opacity="1.000000" stroke="none" d="
M37.780788,34.971996 
	C38.070465,35.409641 38.078320,35.860401 38.133896,36.645927 
	C38.181622,36.980694 38.049580,37.008324 37.740234,37.003159 
	C37.430885,36.997997 36.944462,36.978104 36.944462,36.978104 
	C36.934155,36.552383 36.923847,36.126667 36.926933,35.382706 
	C37.126534,35.038017 37.312752,35.011566 37.780788,34.971996 
z" data-index="121" style="opacity: 1;"></path>
<path fill="#495987" opacity="1.000000" stroke="none" d="
M36.920563,34.741417 
	C36.634544,34.570217 36.325401,34.105316 35.955605,33.359161 
	C36.229115,33.534508 36.563278,33.991112 36.920563,34.741417 
z" data-index="122"></path>
<path fill="#B38D7D" opacity="1.000000" stroke="none" d="
M26.820229,23.404663 
	C26.257109,22.492260 25.944929,21.672430 25.558773,20.415943 
	C25.509167,19.222471 25.533543,18.465658 25.506067,17.333166 
	C26.441484,17.837940 27.428751,18.718391 28.704208,19.788435 
	C28.351988,21.151096 27.711578,22.324167 26.820229,23.404663 
z" data-index="123"></path>
<path fill="#352D2E" opacity="1.000000" stroke="none" d="
M19.816593,15.835260 
	C19.531645,16.020613 19.093134,16.012062 18.325413,15.999187 
	C18.551811,15.877028 19.107422,15.759193 19.816593,15.835260 
z" data-index="124" style="visibility: visible;"></path>
<path fill="#AB8877" opacity="1.000000" stroke="none" d="
M28.809387,28.042366 
	C28.502148,29.176126 27.892540,30.291395 27.226139,31.717415 
	C27.169348,32.028168 26.721479,32.173672 26.276714,32.079247 
	C25.669586,31.929483 25.507221,31.874149 25.344856,31.818817 
	C25.562407,30.772081 25.779955,29.725346 26.425343,28.368248 
	C27.202776,28.036032 27.552372,28.014179 27.901970,27.992327 
	C28.103651,28.002842 28.305334,28.013359 28.809387,28.042366 
z" data-index="125"></path>
<path fill="#937265" opacity="1.000000" stroke="none" d="
M27.857662,27.694664 
	C27.552372,28.014179 27.202776,28.036032 26.590572,28.073729 
	C26.267748,27.612995 26.207531,27.136415 26.122231,26.299511 
	C26.669216,26.425121 27.241283,26.911060 27.857662,27.694664 
z" data-index="126"></path>
<path fill="#4E4B4B" opacity="1.000000" stroke="none" d="
M25.452410,37.133083 
	C25.222984,37.208141 24.993561,37.283199 24.409359,37.434204 
	C23.702930,36.252190 23.351276,34.994225 22.936977,33.353809 
	C23.288458,32.935242 23.702583,32.899132 24.495916,33.222843 
	C24.927074,33.823242 24.979023,34.063812 25.035919,34.661644 
	C25.178049,35.723629 25.315229,36.428356 25.452410,37.133083 
z" data-index="127" style="opacity: 1;"></path>
<path fill="#735E58" opacity="1.000000" stroke="none" d="
M25.030972,34.304386 
	C24.979023,34.063812 24.927074,33.823242 24.806799,33.219017 
	C24.835991,32.680775 24.933510,32.506191 25.187943,32.075211 
	C25.507221,31.874149 25.669586,31.929483 26.046396,32.128159 
	C26.198864,32.637669 26.136885,33.003841 25.760315,33.711258 
	C25.445724,34.052502 25.030972,34.304386 25.030972,34.304386 
z" data-index="128"></path>
<path fill="#342C2E" opacity="1.000000" stroke="none" d="
M25.035919,34.661644 
	C25.030972,34.304386 25.445724,34.052502 25.676714,33.978874 
	C25.914610,34.910725 25.921516,35.916203 25.690416,37.027382 
	C25.315229,36.428356 25.178049,35.723629 25.035919,34.661644 
z" data-index="129"></path>
<path fill="#2E2D31" opacity="1.000000" stroke="none" d="
M27.935040,33.432854 
	C28.044798,33.416462 28.209101,33.649914 28.272005,34.022209 
	C28.110266,34.001602 28.049925,33.842152 27.935040,33.432854 
z" data-index="130"></path>
<path fill="#4A4E5A" opacity="1.000000" stroke="none" d="
M36.862053,37.214233 
	C36.944462,36.978104 37.430885,36.997997 37.673180,37.010445 
	C37.949528,37.483643 37.983585,37.944389 37.985012,38.752426 
	C37.561470,38.549931 37.170559,38.000149 36.862053,37.214233 
z" data-index="131"></path>
</svg>